<svg width="136" height="37" viewBox="0 0 136 37" fill="none" xmlns="http://www.w3.org/2000/svg">
<g clip-path="url(#clip0_24017_6182)">
<path d="M7.03081 20.7354C10.9368 20.7354 14.0616 17.5396 14.0616 13.7046C14.0616 9.86965 10.8658 6.67383 7.03081 6.67383C3.19582 6.67383 0 9.72761 0 13.6336C0 17.5396 3.19582 20.6644 7.03081 20.6644V20.7354Z" fill="#FF3578"/>
<path d="M128.898 20.7354C132.804 20.7354 135.929 17.5396 135.929 13.7046C135.929 9.86965 132.733 6.67383 128.898 6.67383C125.063 6.67383 121.868 9.86965 121.868 13.7046C121.868 17.5396 125.063 20.7354 128.898 20.7354Z" fill="#0AB6A2"/>
<path d="M31.532 6.38969C30.5378 5.67951 29.4015 5.39544 28.1232 5.39544C26.8448 5.39544 26.3477 5.60849 25.6375 5.96358C24.9273 6.31867 24.3592 6.88682 23.9331 7.597C23.507 8.30718 23.0809 9.23042 22.7968 10.2957H22.0866C22.2287 9.65653 22.2997 9.01737 22.4417 8.44922C22.5837 7.88107 22.6548 7.31293 22.7258 6.8158C22.7968 6.24766 22.8678 5.75053 22.8678 5.2534V-0.00195312H18.0386V21.5876H22.0156V16.9004H22.6548C22.7968 18.0367 23.1519 18.9599 23.578 19.7411C24.0751 20.5223 24.6433 21.0905 25.4245 21.4456C26.2057 21.8007 27.0579 22.0137 28.0522 22.0137C29.0464 22.0137 30.6088 21.6586 31.532 21.0195C32.5263 20.3093 33.2365 19.386 33.8046 18.1787C34.3728 16.9714 34.5858 15.48 34.5858 13.7756C34.5858 12.0712 34.3018 10.5088 33.8046 9.30144C33.2365 8.02311 32.5263 7.09987 31.532 6.38969ZM29.1174 16.0482C28.8334 16.6873 28.4783 17.2555 27.9811 17.6106C27.484 17.9657 26.9159 18.1787 26.2057 18.1787C25.4955 18.1787 25.0694 18.0367 24.6433 17.8236C24.2172 17.5396 23.8621 17.1845 23.578 16.7584C23.2939 16.3322 23.1519 15.9061 23.0099 15.409C22.8678 14.9119 22.7968 14.4858 22.7968 14.0597V13.4205C22.7968 13.0654 22.7968 12.6393 22.9388 12.2842C23.0099 11.8581 23.2229 11.503 23.3649 11.1479C23.578 10.7928 23.7911 10.4377 24.0751 10.1537C24.3592 9.86959 24.6433 9.65653 25.0694 9.5145C25.4245 9.37246 25.8506 9.30144 26.2767 9.30144C26.9159 9.30144 27.484 9.5145 27.9811 9.86959C28.4783 10.2247 28.8334 10.7218 29.1174 11.432C29.4015 12.0712 29.4725 12.8524 29.4725 13.7756C29.4725 14.6988 29.3305 15.48 29.0464 16.1192L29.1174 16.0482Z" fill="white"/>
<path d="M59.1581 5.3252C58.1638 5.3252 57.3116 5.53825 56.5304 5.89334C55.8202 6.24843 55.181 6.81658 54.6839 7.59778C54.1868 8.37898 53.8317 9.30222 53.5476 10.4385H52.9795V5.75131H47.9372V12.7821C47.9372 13.5633 47.9372 14.2735 47.7241 14.9127C47.5821 15.5518 47.369 16.12 47.156 16.6171C46.8719 17.1142 46.5878 17.4693 46.1617 17.7534C45.8066 18.0375 45.3095 18.1085 44.8124 18.1085C43.8891 18.1085 43.25 17.7534 42.8238 17.0432C42.3977 16.333 42.1847 15.1967 42.1847 13.7054V5.75131H37.2844V14.3445C37.2844 16.9722 37.7816 18.8897 38.7048 20.168C39.699 21.4463 41.1194 22.0855 42.9659 22.0855C44.8124 22.0855 44.8124 21.8725 45.5225 21.5174C46.2327 21.1623 46.7299 20.5941 47.227 19.8129C47.6531 19.0317 48.0792 17.9664 48.3633 16.7591H48.9314V21.6594H53.9027V14.4866C53.9027 13.5633 54.0447 12.7111 54.2578 11.9299C54.4708 11.1487 54.8259 10.5805 55.3231 10.0834C55.8202 9.65731 56.4594 9.37324 57.2406 9.37324C58.0218 9.37324 58.874 9.72833 59.3001 10.5095C59.7972 11.2197 60.0103 12.427 60.0103 14.0604V21.6594H64.9105V13.5633C64.9105 10.7226 64.4134 8.66305 63.4192 7.31371C62.4249 6.03538 61.0755 5.39621 59.1581 5.39621V5.3252Z" fill="white"/>
<path d="M80.6767 18.1083C80.0375 17.8242 79.3984 17.6822 78.7592 17.6822C78.12 17.6822 77.6229 17.6112 77.1968 17.6112H72.3676C72.1545 17.6112 71.9414 17.6112 71.7284 17.6112C71.5153 17.6112 71.3733 17.5402 71.3023 17.3981C71.2313 17.3271 71.1602 17.1851 71.1602 17.1141C71.1602 17.043 71.2313 16.759 71.4443 16.6169C71.6574 16.4039 71.8704 16.1908 72.2255 15.9068C73.0067 15.9778 73.5039 16.0488 73.7879 16.0488C74.072 16.0488 74.3561 16.0488 74.5691 16.0488C75.9185 16.0488 77.1258 15.9068 78.12 15.5517C79.1143 15.1966 79.8955 14.6994 80.4636 14.0603C81.0318 13.4211 81.3159 12.7109 81.3159 11.9297C81.3159 11.1485 81.0318 10.5804 80.4636 10.1543C79.8955 9.72816 78.9723 9.44409 77.6939 9.23104V8.52085L82.7362 9.16002V5.53809H74.4981C72.7937 5.53809 71.4443 5.82216 70.308 6.31929C69.1717 6.81641 68.3195 7.45558 67.7514 8.23678C67.1832 9.01798 66.8991 9.94122 66.8991 10.9355C66.8991 11.9297 67.2542 13.066 67.9644 13.7762C68.6746 14.4864 69.6689 14.9125 70.8762 14.9835V15.6227C69.5268 15.9068 68.6036 16.2618 67.9644 16.688C67.3963 17.1141 67.1122 17.6822 67.1122 18.2504C67.1122 18.8185 67.3963 19.2446 67.9644 19.4577C68.5326 19.6707 69.3848 19.8128 70.5211 19.8128V20.4519C69.1007 20.5229 68.0354 20.878 67.2542 21.4462C66.5441 22.0143 66.189 22.7955 66.189 23.7188C66.189 24.642 66.473 25.1391 66.9702 25.6363C67.4673 26.2044 68.3195 26.5595 69.4558 26.8436C70.5921 27.1276 72.0835 27.2697 73.7879 27.2697C75.4924 27.2697 77.6229 27.0566 78.9723 26.7015C80.3216 26.3464 81.3159 25.7073 82.026 24.9261C82.6652 24.1449 83.0203 23.1506 83.0203 22.0143C83.0203 20.878 82.8072 20.0968 82.3101 19.5287C81.884 18.9605 81.3159 18.5344 80.6767 18.2504V18.1083ZM72.3676 9.37307C72.7937 8.87594 73.5038 8.59187 74.285 8.59187C75.0663 8.59187 75.7054 8.87594 76.2025 9.37307C76.6287 9.8702 76.8417 10.5094 76.8417 11.2195C76.8417 11.9297 76.6287 12.4979 76.2025 12.995C75.7764 13.4211 75.1373 13.7052 74.285 13.7052C73.4328 13.7052 73.2198 13.6342 72.8647 13.4211C72.5096 13.2081 72.2255 12.924 72.0125 12.5689C71.7994 12.2138 71.7284 11.7877 71.7284 11.2906C71.7284 10.5094 71.9414 9.94122 72.4386 9.44409L72.3676 9.37307ZM78.4751 22.5825C78.2621 22.8665 77.7649 23.0086 77.1258 23.1506C76.4866 23.2927 75.5634 23.3637 74.4271 23.3637C73.2908 23.3637 72.8647 23.3637 72.2965 23.2216C71.7994 23.1506 71.3733 23.0086 71.1602 22.7955C70.9472 22.5825 70.8052 22.2984 70.8052 21.9433C70.8052 21.5882 70.9472 21.0911 71.3023 20.736C71.6574 20.3809 72.2255 20.1679 72.9357 20.1679H76.8417C76.9837 20.1679 77.1968 20.1679 77.4099 20.1679C77.6229 20.1679 77.907 20.1679 78.12 20.3099C78.3331 20.3809 78.5461 20.5229 78.6882 20.736C78.8302 20.9491 78.9012 21.2331 78.9012 21.5882C78.9012 21.9433 78.7592 22.2984 78.5461 22.5825H78.4751Z" fill="white"/>
<path d="M95.5906 17.0422C95.4485 17.3263 95.3065 17.6104 95.0224 17.8234C94.8094 18.0365 94.5253 18.2495 94.1702 18.3916C93.8151 18.5336 93.389 18.6046 92.8209 18.6046C91.6846 18.6046 90.8323 18.2495 90.1222 17.4683C89.554 16.8292 89.1989 15.977 89.1279 14.6986H100.065C100.136 13.1362 100.065 11.8579 99.7806 10.6506C99.4966 9.5143 98.9994 8.52004 98.3603 7.73884C97.7211 6.95764 96.9399 6.31847 95.9457 5.96338C94.9514 5.53727 93.8861 5.32422 92.6078 5.32422C91.3295 5.32422 90.1932 5.53727 89.1989 5.96338C88.2047 6.38949 87.3524 6.95764 86.6423 7.73884C85.9321 8.52004 85.435 9.44328 85.0799 10.4375C84.7248 11.5028 84.5117 12.6391 84.5117 13.9174C84.5117 15.1958 84.7248 16.4031 85.0799 17.3973C85.435 18.3916 86.0031 19.2438 86.7133 19.954C87.4235 20.6642 88.3467 21.1613 89.412 21.5164C90.4773 21.8715 91.6135 22.0135 92.9629 22.0135C94.3122 22.0135 95.0934 21.8715 95.8746 21.6584C96.7269 21.4454 97.437 21.0903 98.0052 20.6642C98.5733 20.2381 99.0705 19.6699 99.4256 19.1018C99.7806 18.5336 100.065 17.8234 100.207 17.1133L96.0167 16.19C95.9457 16.4741 95.8036 16.6871 95.6616 16.9712L95.5906 17.0422ZM90.7613 9.58532C91.3295 9.23022 91.8976 9.01717 92.6078 9.01717C93.318 9.01717 93.7441 9.15921 94.2412 9.44328C94.7383 9.72735 95.0934 10.1535 95.3775 10.7926C95.5196 11.1477 95.5906 11.5738 95.6616 12.071H89.2699C89.341 11.7869 89.412 11.5028 89.554 11.2187C89.8381 10.5086 90.2642 9.94041 90.7613 9.58532Z" fill="white"/>
<path d="M113.771 16.1897C113.7 16.4738 113.558 16.6869 113.416 16.9709C113.274 17.255 113.132 17.5391 112.848 17.7521C112.635 17.9652 112.351 18.1783 111.996 18.3203C111.641 18.4623 111.215 18.5333 110.647 18.5333C109.51 18.5333 108.658 18.1783 107.948 17.3971C107.38 16.7579 107.025 15.9057 106.954 14.6273H117.89C117.961 13.0649 117.89 11.7866 117.606 10.5793C117.322 9.44301 116.825 8.44875 116.186 7.66755C115.547 6.88635 114.766 6.24719 113.771 5.89209C112.777 5.46598 111.712 5.25293 110.433 5.25293C109.155 5.25293 108.019 5.46598 107.025 5.89209C106.03 6.3182 105.178 6.88635 104.468 7.66755C103.758 8.44875 103.261 9.37199 102.906 10.3662C102.55 11.4315 102.337 12.5678 102.337 13.8461C102.337 15.1245 102.55 16.3318 102.906 17.326C103.261 18.3203 103.829 19.1725 104.539 19.8827C105.249 20.5929 106.172 21.09 107.238 21.4451C108.303 21.8002 109.439 21.9422 110.789 21.9422C112.138 21.9422 112.919 21.8002 113.7 21.5871C114.553 21.3741 115.263 21.019 115.831 20.5929C116.399 20.1668 116.896 19.5986 117.251 19.0305C117.606 18.4623 117.89 17.7521 118.032 17.042L113.842 16.1187L113.771 16.1897ZM108.587 9.58504C109.155 9.22995 109.723 9.0169 110.433 9.0169C111.144 9.0169 111.57 9.15894 112.067 9.44301C112.564 9.72708 112.919 10.1532 113.203 10.7924C113.345 11.1474 113.416 11.5736 113.487 12.0707H107.096C107.167 11.7866 107.238 11.5025 107.38 11.2185C107.664 10.5083 108.09 9.94014 108.587 9.58504Z" fill="white"/>
<path d="M18.4644 36.8575V31.7441H18.8905V36.8575H18.4644ZM18.6064 35.224V34.7979H19.8847C20.0268 34.7979 20.0978 34.7979 20.3108 34.7979C20.4529 34.7979 20.5949 34.7979 20.808 34.7269C20.95 34.7269 21.092 34.5849 21.2341 34.5139C21.3761 34.4428 21.4471 34.3008 21.5892 34.0877C21.6602 33.9457 21.7312 33.7327 21.7312 33.4486C21.7312 33.1645 21.7312 32.9515 21.5892 32.8094C21.5181 32.6674 21.3761 32.5253 21.2341 32.4543C21.092 32.3833 20.95 32.3123 20.808 32.2413C20.6659 32.2413 20.5239 32.2413 20.3818 32.1702C20.2398 32.1702 20.1688 32.1702 20.0268 32.1702H18.6064V31.7441H20.0978C20.3818 31.7441 20.6659 31.7441 20.879 31.8152C21.092 31.8862 21.3051 31.9572 21.5181 32.0992C21.7312 32.2413 21.8732 32.4543 21.9443 32.6674C22.0153 32.8804 22.0863 33.1645 22.0863 33.4486C22.0863 33.7327 22.0153 34.1588 21.8022 34.3718C21.5892 34.5849 21.3761 34.7979 21.021 34.94C20.6659 35.082 20.2398 35.153 19.7427 35.153H18.5354L18.6064 35.224Z" fill="white"/>
<path d="M26.9157 36.9999C26.5606 36.9999 26.2055 36.9999 25.9214 36.7869C25.6373 36.6448 25.4243 36.5028 25.2112 36.2187C24.9982 36.0057 24.9271 35.7216 24.7851 35.3665C24.7141 35.0114 24.6431 34.7273 24.6431 34.3012C24.6431 33.7331 24.7141 33.236 24.9271 32.8099C25.1402 32.3837 25.3532 32.0997 25.7083 31.8866C26.0634 31.6736 26.4185 31.6025 26.8446 31.6025C27.2707 31.6025 27.4838 31.6025 27.7679 31.8156C28.0519 31.9576 28.265 32.0997 28.4781 32.3837C28.6911 32.5968 28.8331 32.8809 28.9042 33.236C28.9752 33.5911 29.0462 33.9461 29.0462 34.3723C29.0462 34.7984 29.0462 35.0824 28.9042 35.4375C28.8331 35.7926 28.6911 36.0057 28.4781 36.2897C28.265 36.5028 28.0519 36.7159 27.7679 36.8579C27.4838 36.9999 27.1997 37.0709 26.7736 37.0709L26.9157 36.9999ZM26.8446 36.5738C26.9867 36.5738 27.1997 36.5738 27.4128 36.5028C27.6258 36.5028 27.8389 36.3608 27.9809 36.1477C28.194 36.0057 28.336 35.7926 28.407 35.5085C28.4781 35.2245 28.5491 34.8694 28.5491 34.3723C28.5491 33.8751 28.4781 33.378 28.336 33.0939C28.194 32.7388 27.9809 32.5258 27.6969 32.3837C27.4128 32.2417 27.1287 32.1707 26.8446 32.1707C26.5606 32.1707 26.4895 32.1707 26.2765 32.2417C26.0634 32.2417 25.8504 32.3837 25.7083 32.5968C25.5663 32.8099 25.3532 32.9519 25.2822 33.307C25.1402 33.5911 25.0692 34.0172 25.0692 34.4433C25.0692 34.8694 25.0692 35.2245 25.2112 35.5085C25.2822 35.7926 25.4243 36.0057 25.6373 36.1477C25.7794 36.2897 25.9924 36.4318 26.2055 36.5028C26.4185 36.5028 26.6316 36.5738 26.7736 36.5738H26.8446Z" fill="white"/>
<path d="M32.8103 36.8575L31.4609 31.7441H31.9581L33.1654 36.4313L34.3017 31.7441H34.9408L36.0771 36.4313L37.2844 31.7441H37.7816L36.3612 36.8575H35.722L34.5857 32.1702L33.4494 36.8575H32.8103Z" fill="white"/>
<path d="M40.48 36.8575V31.7441H40.9061V36.8575H40.48ZM40.622 32.1702V31.7441H43.8889V32.1702H40.622ZM40.622 34.4428V34.0167H43.5338V34.4428H40.622ZM40.622 36.8575V36.4313H43.8889V36.8575H40.622Z" fill="white"/>
<path d="M46.5166 36.8575V31.7441H48.079C48.2921 31.7441 48.5761 31.7441 48.7892 31.7441C49.0022 31.7441 49.1443 31.8152 49.3573 31.9572C49.5704 32.0992 49.6414 32.1703 49.7834 32.2413C49.9255 32.3833 49.9965 32.5253 50.0675 32.6674C50.0675 32.8094 50.1385 33.0225 50.1385 33.1645C50.1385 33.3065 50.1385 33.5196 50.0675 33.6616C50.0675 33.8037 49.9255 33.9457 49.8545 34.0877C49.7834 34.2298 49.6414 34.3008 49.4994 34.3718C49.3573 34.4428 49.1443 34.5139 48.9312 34.5139C49.0733 34.5849 49.2153 34.6559 49.2863 34.7269C49.4284 34.7269 49.5704 34.8689 49.6414 35.011C49.7124 35.153 49.8545 35.3661 49.9255 35.5791L50.2806 36.7864H49.8545L49.5704 35.7212C49.5704 35.5081 49.4284 35.2951 49.2863 35.153C49.1443 35.011 49.0022 34.94 48.7892 34.8689C48.6471 34.8689 48.4341 34.7979 48.221 34.7979H47.0137V36.8575H46.5876H46.5166ZM46.9427 34.4428H47.8659C48.008 34.4428 48.15 34.4428 48.2921 34.4428C48.4341 34.4428 48.5761 34.4428 48.7182 34.4428C48.8602 34.4428 49.0022 34.3718 49.1443 34.3008C49.2863 34.2298 49.3573 34.0877 49.4994 33.9457C49.6414 33.8037 49.6414 33.5906 49.6414 33.3776C49.6414 33.1645 49.6414 32.9515 49.4994 32.8094C49.3573 32.6674 49.2863 32.5253 49.2153 32.4543C49.1443 32.3833 48.9312 32.3123 48.7892 32.3123C48.6471 32.3123 48.5051 32.3123 48.3631 32.3123C48.221 32.3123 48.079 32.3123 48.008 32.3123H46.9427V34.5849V34.4428Z" fill="white"/>
<path d="M52.9795 36.8575V31.7441H53.4056V36.8575H52.9795ZM53.1215 32.1702V31.7441H56.3884V32.1702H53.1215ZM53.1215 34.4428V34.0167H56.0333V34.4428H53.1215ZM53.1215 36.8575V36.4313H56.3884V36.8575H53.1215Z" fill="white"/>
<path d="M59.0161 36.8575V31.7441H59.4422V36.8575H59.0161ZM59.3002 36.8575V36.4313H60.7916C61.0756 36.4313 61.3597 36.4313 61.5728 36.2893C61.7858 36.1473 61.9989 36.0052 62.0699 35.8632C62.1409 35.7212 62.283 35.4371 62.354 35.153C62.354 34.8689 62.425 34.5849 62.425 34.3008C62.425 34.0167 62.425 33.7327 62.354 33.4486C62.354 33.1645 62.2119 32.9514 62.0699 32.7384C61.9279 32.5253 61.7148 32.3833 61.5018 32.3123C61.2177 32.1702 60.9336 32.1702 60.5785 32.1702H59.3002V31.7441H60.5785C61.1467 31.7441 61.5728 31.8152 61.9279 32.0282C62.283 32.2413 62.567 32.5253 62.7091 32.8804C62.8511 33.2355 62.9931 33.7327 62.9931 34.2298C62.9931 34.7269 62.9931 35.011 62.8511 35.2951C62.7801 35.5791 62.638 35.8632 62.496 36.0052C62.354 36.2183 62.2119 36.3603 61.9989 36.5024C61.7858 36.6444 61.6438 36.7154 61.4307 36.7864C61.2177 36.7864 61.0046 36.8575 60.8626 36.8575H59.3002Z" fill="white"/>
<path d="M68.2483 36.8575V31.7441H69.9527C70.2368 31.7441 70.4498 31.7441 70.7339 31.8152C70.947 31.8152 71.16 31.9572 71.3021 32.0282C71.4441 32.1702 71.5861 32.2413 71.6571 32.4543C71.7282 32.5964 71.7992 32.8094 71.7992 33.0225C71.7992 33.2355 71.7992 33.3776 71.6571 33.5196C71.5861 33.6616 71.4441 33.8037 71.3021 33.8747C71.16 33.9457 70.947 34.0167 70.6629 34.0877C71.16 34.2298 71.4441 34.3008 71.6571 34.5849C71.8702 34.8689 71.9412 35.082 71.9412 35.4371C71.9412 35.7922 71.9412 35.9342 71.7282 36.1473C71.5861 36.3603 71.3731 36.5024 71.16 36.6444C70.947 36.7864 70.5208 36.7864 70.0947 36.7864H68.1772L68.2483 36.8575ZM68.7454 34.0167H69.6686C69.9527 34.0167 70.1658 34.0167 70.3788 34.0167C70.5919 34.0167 70.7339 33.9457 70.947 33.8747C71.089 33.8037 71.231 33.7327 71.3021 33.5906C71.3731 33.4486 71.4441 33.3065 71.4441 33.1645C71.4441 33.0225 71.4441 32.8804 71.3731 32.7384C71.3731 32.5964 71.231 32.5253 71.089 32.4543C70.947 32.3833 70.8049 32.3123 70.6629 32.3123C70.4498 32.3123 70.3078 32.3123 70.0237 32.3123H68.8874V34.1588L68.7454 34.0167ZM68.7454 36.5024H70.3078C70.5208 36.5024 70.6629 36.5024 70.8759 36.5024C71.018 36.5024 71.16 36.4313 71.3021 36.3603C71.4441 36.2893 71.5151 36.2183 71.5861 36.0763C71.5861 35.9342 71.6571 35.7922 71.6571 35.6501C71.6571 35.5081 71.6571 35.3661 71.5861 35.224C71.5861 35.082 71.4441 35.011 71.3731 34.94C71.3021 34.8689 71.16 34.7979 71.018 34.7269C70.8759 34.7269 70.7339 34.6559 70.5209 34.5849C70.3078 34.5139 70.0947 34.5849 69.8817 34.5849H68.8164V36.5734L68.7454 36.5024Z" fill="white"/>
<path d="M75.847 36.8575V35.153L74.1426 31.7441H74.6397L76.0601 34.6559L77.4804 31.7441H77.9776L76.2731 35.153V36.8575H75.847Z" fill="white"/>
<path d="M117.535 31.6035H113.203V32.4557H114.837V36.9299H115.902V32.4557H117.535V31.6035Z" fill="white"/>
<path d="M92.963 31.8883C92.5369 31.6752 92.1108 31.5332 91.5427 31.5332C90.9745 31.5332 90.5484 31.6752 90.1223 31.8883C89.6962 32.1013 89.4121 32.4564 89.128 32.8825C88.915 33.3087 88.7729 33.7348 88.7729 34.3029C88.7729 34.8711 88.915 35.2972 89.128 35.7233C89.3411 36.1494 89.6962 36.4335 90.1223 36.7175C90.5484 36.9306 90.9745 37.0726 91.5427 37.0726C92.1108 37.0726 92.5369 36.9306 92.963 36.7175C93.3891 36.5045 93.6732 36.1494 93.9573 35.7233C94.1703 35.2972 94.3124 34.8 94.3124 34.3029C94.3124 33.8058 94.1703 33.3087 93.9573 32.8825C93.7442 32.4564 93.3891 32.1013 92.963 31.8883ZM93.034 35.2262C92.892 35.5102 92.679 35.7233 92.4659 35.8653C92.1818 36.0074 91.8978 36.0784 91.6137 36.0784C91.3296 36.0784 90.9745 36.0074 90.7615 35.8653C90.4774 35.7233 90.3354 35.5102 90.1933 35.2262C90.0513 34.9421 89.9803 34.658 89.9803 34.3029C89.9803 33.9478 90.0513 33.6638 90.1933 33.3797C90.3354 33.0956 90.5484 32.8825 90.7615 32.7405C91.0455 32.5985 91.3296 32.5275 91.6137 32.5275C91.8978 32.5275 92.2528 32.5985 92.4659 32.7405C92.75 32.8825 92.892 33.0956 93.034 33.3797C93.1761 33.6638 93.2471 33.9478 93.2471 34.3029C93.2471 34.658 93.1761 34.9421 93.034 35.2262Z" fill="white"/>
<path d="M86.5005 33.9471C86.2874 33.8051 85.9323 33.7341 85.5772 33.663C85.3642 33.663 85.1511 33.521 85.0091 33.521C84.867 33.521 84.796 33.379 84.654 33.308C84.583 33.2369 84.5119 33.0949 84.5119 32.9529C84.5119 32.8108 84.5119 32.7398 84.583 32.6688C84.583 32.5978 84.725 32.5268 84.867 32.4557C85.0091 32.4557 85.1511 32.4557 85.2931 32.4557C85.5772 32.4557 85.7903 32.4557 85.9323 32.6688C86.1454 32.8108 86.2164 32.9529 86.2874 33.2369H87.2817C87.2817 32.7398 86.9976 32.3137 86.6425 32.0296C86.2874 31.7456 85.7903 31.6035 85.2221 31.6035C84.654 31.6035 84.583 31.6035 84.2989 31.8166C84.0148 31.9586 83.8018 32.1006 83.6597 32.3847C83.5177 32.5978 83.4467 32.8818 83.4467 33.1659C83.4467 33.45 83.5177 33.8051 83.6597 34.0181C83.8018 34.2312 84.0148 34.3732 84.2279 34.5153C84.4409 34.5863 84.725 34.7283 85.1511 34.7993C85.4352 34.7993 85.6482 34.9414 85.7903 35.0124C85.9323 35.0124 86.0744 35.1544 86.1454 35.2254C86.2164 35.2965 86.2874 35.4385 86.2874 35.6516C86.2874 35.8646 86.2874 35.8646 86.1454 36.0066C86.0744 36.0777 85.9323 36.1487 85.8613 36.2197C85.7193 36.2197 85.5772 36.2907 85.3642 36.2907C85.1511 36.2907 85.0091 36.2907 84.796 36.1487C84.654 36.0777 84.5119 35.9356 84.3699 35.7936C84.2989 35.6516 84.2279 35.4385 84.1569 35.2254H83.1626C83.1626 35.6516 83.3046 35.9356 83.5177 36.2197C83.7307 36.5038 83.9438 36.7168 84.2989 36.8589C84.583 37.0009 84.9381 37.0719 85.3642 37.0719C85.7903 37.0719 86.0743 37.0719 86.3584 36.8589C86.6425 36.7168 86.8555 36.5038 87.0686 36.2907C87.2106 36.0777 87.3527 35.7936 87.3527 35.4385C87.3527 35.0834 87.2817 34.7283 87.0686 34.5153C86.8555 34.3022 86.6425 34.0892 86.4294 34.0181L86.5005 33.9471Z" fill="white"/>
<path d="M109.297 34.5863H111.428V33.7341H109.297V32.4557H111.925V31.6035H108.303V36.9299H111.996V36.0777H109.297V34.5863Z" fill="white"/>
<path d="M99.4971 35.581C99.3551 35.723 99.213 35.865 99 35.9361C98.7869 36.0071 98.6449 36.0781 98.3608 36.0781C98.0767 36.0781 97.7927 36.0071 97.5086 35.865C97.2955 35.723 97.0825 35.51 96.9404 35.2259C96.7984 34.9418 96.7274 34.5867 96.7274 34.2316C96.7274 33.8765 96.7274 33.5214 96.9404 33.2374C97.0825 32.9533 97.2955 32.7402 97.5086 32.5982C97.7927 32.4562 98.0767 32.3852 98.3608 32.3852C98.6449 32.3852 99 32.4562 99.213 32.6692C99.4261 32.8823 99.5681 33.0953 99.6391 33.4504H100.704C100.704 33.0953 100.562 32.7402 100.349 32.4562C100.136 32.1721 99.8522 31.959 99.4971 31.746C99.142 31.604 98.7869 31.4619 98.3608 31.4619C97.9347 31.4619 97.3666 31.604 96.9404 31.817C96.5143 32.0301 96.2303 32.3852 96.0172 32.7402C95.8041 33.1664 95.6621 33.6635 95.6621 34.2316C95.6621 34.7998 95.8041 35.2969 96.0172 35.723C96.2303 36.1491 96.5853 36.4332 96.9404 36.6462C97.3666 36.8593 97.7927 37.0013 98.2898 37.0013C98.7869 37.0013 99.142 36.9303 99.4261 36.7173C99.7812 36.5752 100.065 36.2912 100.278 36.0071C100.491 35.723 100.633 35.3679 100.633 35.0128H99.5681C99.5681 35.2259 99.4261 35.4389 99.3551 35.581H99.4971Z" fill="white"/>
<path d="M106.812 31.6035H105.391L103.403 33.7341V31.6035H102.338V36.9299H103.403V35.1544L104.042 34.4442L105.747 36.9299H107.025L104.752 33.7341L106.812 31.6035Z" fill="white"/>
</g>
<defs>
<clipPath id="clip0_24017_6182">
<rect width="136" height="37.0005" fill="white"/>
</clipPath>
</defs>
</svg>
